# xmcd
#
# Track frame offsets: 
#        150
#        18580
#        36944
#        50613
#        66042
#        79953
#        98186
#        115365
#
# Disc length: 1753 seconds
#
# Revision: 0
# Processed by: cddbd v1.5.2PL0 Copyright (c) Steve Scherf et al.
# Submitted via: ExactAudioCopy v0.99pb5
#
DISCID=6a06d708
DTITLE=No Comment - La noapte am sa te... fur
DYEAR=1999
DGENRE=Dance
TTITLE0=La noapte...
TTITLE1=Atat de frumoasa
TTITLE2=Vreau sa uit
TTITLE3=S'altadata (dance version)
TTITLE4=Toata lumea vrea
TTITLE5=Mi-e dor de tine (Robby G - club version)
TTITLE6=Aria Cosanzenei
TTITLE7=S'altadata (latino version)
EXTD=
EXTT0=
EXTT1=
EXTT2=
EXTT3=
EXTT4=
EXTT5=
EXTT6=
EXTT7=
PLAYORDER=
